<svg height="512" viewBox="0 0 512 512" width="512" xmlns="http://www.w3.org/2000/svg" xmlns:xlink="http://www.w3.org/1999/xlink"><linearGradient id="New_Gradient_Swatch_11" gradientUnits="userSpaceOnUse" x1="84" x2="428" y1="588" y2="244"><stop offset=".011" stop-color="#60c6be"/><stop offset="1" stop-color="#80d1cb"/></linearGradient><linearGradient id="New_Gradient_Swatch_3" gradientUnits="userSpaceOnUse" x1="166.25" x2="346.25" y1="538.25" y2="358.25"><stop offset=".011" stop-color="#606082"/><stop offset="1" stop-color="#83839e"/></linearGradient><linearGradient id="New_Gradient_Swatch_13" gradientUnits="userSpaceOnUse" x1="152.969" x2="359.031" y1="255.197" y2="49.134"><stop offset="0" stop-color="#d46669"/><stop offset="1" stop-color="#dd888a"/></linearGradient><linearGradient id="New_Gradient_Swatch_22" gradientUnits="userSpaceOnUse" x1="193.775" x2="318.225" y1="206.225" y2="81.775"><stop offset=".011" stop-color="#dcdce3"/><stop offset="1" stop-color="#ededf1"/></linearGradient><linearGradient id="New_Gradient_Swatch_13-2" x1="227.729" x2="284.271" xlink:href="#New_Gradient_Swatch_13" y1="172.271" y2="115.729"/><g id="_27-target" data-name="27-target"><g id="gradient"><path d="m4 324h504v184h-504z" fill="url(#New_Gradient_Swatch_11)"/><path d="m377 508h-241l64-184h112z" fill="url(#New_Gradient_Swatch_3)"/><path d="m256 428a12 12 0 0 1 -12-12v-16a12 12 0 0 1 24 0v16a12 12 0 0 1 -12 12z" fill="#b8b8c7"/><path d="m256 500a12 12 0 0 1 -12-12v-24a12 12 0 0 1 24 0v24a12 12 0 0 1 -12 12z" fill="#b8b8c7"/><path d="m256 4c-77.2 0-140 62.8-140 140 0 100.841 127.377 197.533 132.8 201.6a12 12 0 0 0 14.4 0c5.423-4.067 132.8-100.759 132.8-201.6 0-77.2-62.8-140-140-140z" fill="url(#New_Gradient_Swatch_13)"/><circle cx="256" cy="144" fill="url(#New_Gradient_Swatch_22)" r="88"/><path d="m256 244a100 100 0 1 1 100-100 100.113 100.113 0 0 1 -100 100zm0-176a76 76 0 1 0 76 76 76.086 76.086 0 0 0 -76-76z" fill="#e7aaab"/><circle cx="256" cy="144" fill="url(#New_Gradient_Swatch_13-2)" r="40"/><path d="m256 132h-187.029l-28.486-28.485a12 12 0 0 0 -16.97 16.97l23.514 23.515-23.514 23.515a12 12 0 1 0 16.97 16.97l28.486-28.485h187.029a12 12 0 0 0 0-24z" fill="#606082"/></g></g></svg>