<?xml version="1.0" encoding="iso-8859-1"?>
<!-- Generator: Adobe Illustrator 19.0.0, SVG Export Plug-In . SVG Version: 6.00 Build 0)  -->
<svg version="1.1" id="Capa_1" xmlns="http://www.w3.org/2000/svg" xmlns:xlink="http://www.w3.org/1999/xlink" x="0px" y="0px"
	 viewBox="0 0 512 512" style="enable-background:new 0 0 512 512;" xml:space="preserve">
<path style="fill:#40596B;" d="M195.2,194.666H40.533c-4.267,0-7.467,2.133-7.467,5.333s3.2,5.333,7.467,5.333
	c-4.267,0-7.467,2.133-7.467,5.333s3.2,5.333,7.467,5.333c-4.267,0-7.467,2.133-7.467,5.333c0,3.2,3.2,5.333,7.467,5.333H195.2
	V194.666z"/>
<g>
	<polygon style="fill:#FFD15C;" points="414.933,496.531 347.733,496.531 269.867,290.665 338.133,290.665 	"/>
	<polygon style="fill:#FFD15C;" points="98.133,496.531 165.333,496.531 243.2,290.665 174.933,290.665 	"/>
	<rect x="132.27" y="425.069" style="fill:#FFD15C;" width="248.53" height="38.4"/>
</g>
<circle style="fill:#54C0EB;" cx="257.07" cy="209.599" r="194.13"/>
<path style="fill:#F2F2F2;" d="M257.067,355.732c-80,0-146.133-65.067-146.133-146.133S176,63.466,257.067,63.466
	S403.2,128.532,403.2,209.599S337.067,355.732,257.067,355.732z"/>
<path style="fill:#FF7058;" d="M257.067,306.665c-53.333,0-97.067-43.733-97.067-97.067s43.733-97.067,97.067-97.067
	s97.067,43.733,97.067,97.067S310.4,306.665,257.067,306.665z"/>
<path style="fill:#CDD6E0;" d="M257.067,257.599c-26.667,0-49.067-21.333-49.067-49.067s21.333-49.067,49.067-49.067
	s49.067,21.333,49.067,49.067S283.733,257.599,257.067,257.599z"/>
<g>
	<path style="fill:#FFD15C;" d="M257.067,257.599c-26.667,0-49.067-21.333-49.067-49.067s21.333-49.067,49.067-49.067
		s49.067,21.333,49.067,49.067S283.733,257.599,257.067,257.599z"/>
	<path style="fill:#FFD15C;" d="M37.333,194.666L37.333,194.666c-2.133,1.067-4.267,2.133-4.267,4.267c0,3.2,3.2,5.333,7.467,5.333
		c-4.267,0-7.467,2.133-7.467,5.333c0,3.2,3.2,5.333,7.467,5.333c-4.267,0-7.467,2.133-7.467,5.333c0,2.133,2.133,3.2,4.267,4.267
		l0,0l-22.4-8.533L0,209.599l14.933-6.4L37.333,194.666z"/>
</g>
<polygon style="fill:#334A5E;" points="14.933,203.199 14.933,214.932 0,209.599 "/>
<g>
	<path style="opacity:0.2;fill:#40596B;enable-background:new    ;" d="M427.733,301.332c-5.333,8.533-10.667,17.067-16,25.6
		L256,222.398c-6.4-4.267-8.533-13.867-4.267-21.333c4.267-6.4,13.867-8.533,21.333-4.267L427.733,301.332z"/>
	<path style="fill:#40596B;" d="M249.6,209.599L249.6,209.599c0,8.533,6.4,14.933,14.933,14.933h210.133v-29.867H264.533
		C256,194.666,249.6,201.066,249.6,209.599z"/>
</g>
<rect x="474.67" y="194.669" style="fill:#FFD15C;" width="11.733" height="29.867"/>
<path style="fill:#ACB3BA;" d="M504.533,194.666H486.4v29.867h18.133c4.267,0,7.467-2.133,7.467-5.333v-20.267
	C512,196.799,508.8,194.666,504.533,194.666z"/>
<g>
</g>
<g>
</g>
<g>
</g>
<g>
</g>
<g>
</g>
<g>
</g>
<g>
</g>
<g>
</g>
<g>
</g>
<g>
</g>
<g>
</g>
<g>
</g>
<g>
</g>
<g>
</g>
<g>
</g>
</svg>
