<svg width="69" height="10" viewBox="0 0 69 10" fill="none" xmlns="http://www.w3.org/2000/svg">
<path d="M2.76 7.476L0.456 4.86L2.76 2.232H5.712L3.408 4.86L5.712 7.476H2.76ZM14.3912 3.204C14.5752 2.884 14.8352 2.636 15.1712 2.46C15.5072 2.276 15.9032 2.184 16.3592 2.184C16.8952 2.184 17.3792 2.324 17.8112 2.604C18.2512 2.884 18.5952 3.284 18.8432 3.804C19.0992 4.324 19.2272 4.932 19.2272 5.628C19.2272 6.324 19.0992 6.936 18.8432 7.464C18.5952 7.984 18.2512 8.384 17.8112 8.664C17.3792 8.944 16.8952 9.084 16.3592 9.084C15.9032 9.084 15.5072 8.996 15.1712 8.82C14.8352 8.636 14.5752 8.384 14.3912 8.064V9H12.0392V0.12H14.3912V3.204ZM16.8392 5.628C16.8392 5.188 16.7192 4.848 16.4792 4.608C16.2472 4.36 15.9592 4.236 15.6152 4.236C15.2712 4.236 14.9792 4.36 14.7392 4.608C14.5072 4.856 14.3912 5.196 14.3912 5.628C14.3912 6.068 14.5072 6.412 14.7392 6.66C14.9792 6.908 15.2712 7.032 15.6152 7.032C15.9592 7.032 16.2472 6.908 16.4792 6.66C16.7192 6.404 16.8392 6.06 16.8392 5.628ZM19.8114 5.628C19.8114 4.932 19.9354 4.324 20.1834 3.804C20.4394 3.284 20.7834 2.884 21.2154 2.604C21.6554 2.324 22.1434 2.184 22.6794 2.184C23.1434 2.184 23.5434 2.276 23.8794 2.46C24.2154 2.644 24.4754 2.892 24.6594 3.204V2.268H27.0114V9H24.6594V8.064C24.4754 8.376 24.2114 8.624 23.8674 8.808C23.5314 8.992 23.1354 9.084 22.6794 9.084C22.1434 9.084 21.6554 8.944 21.2154 8.664C20.7834 8.384 20.4394 7.984 20.1834 7.464C19.9354 6.936 19.8114 6.324 19.8114 5.628ZM24.6594 5.628C24.6594 5.196 24.5394 4.856 24.2994 4.608C24.0674 4.36 23.7794 4.236 23.4354 4.236C23.0834 4.236 22.7914 4.36 22.5594 4.608C22.3274 4.848 22.2114 5.188 22.2114 5.628C22.2114 6.06 22.3274 6.404 22.5594 6.66C22.7914 6.908 23.0834 7.032 23.4354 7.032C23.7794 7.032 24.0674 6.908 24.2994 6.66C24.5394 6.412 24.6594 6.068 24.6594 5.628ZM27.9677 5.628C27.9677 4.932 28.0917 4.324 28.3397 3.804C28.5957 3.284 28.9437 2.884 29.3837 2.604C29.8237 2.324 30.3117 2.184 30.8477 2.184C31.2797 2.184 31.6637 2.276 31.9997 2.46C32.3437 2.636 32.6117 2.88 32.8037 3.192V0.12H35.1677V9H32.8037V8.064C32.6197 8.376 32.3597 8.624 32.0237 8.808C31.6877 8.992 31.2917 9.084 30.8357 9.084C30.2997 9.084 29.8117 8.944 29.3717 8.664C28.9397 8.384 28.5957 7.984 28.3397 7.464C28.0917 6.936 27.9677 6.324 27.9677 5.628ZM32.8157 5.628C32.8157 5.196 32.6957 4.856 32.4557 4.608C32.2237 4.36 31.9357 4.236 31.5917 4.236C31.2397 4.236 30.9477 4.36 30.7157 4.608C30.4837 4.848 30.3677 5.188 30.3677 5.628C30.3677 6.06 30.4837 6.404 30.7157 6.66C30.9477 6.908 31.2397 7.032 31.5917 7.032C31.9357 7.032 32.2237 6.908 32.4557 6.66C32.6957 6.412 32.8157 6.068 32.8157 5.628ZM36.1239 5.628C36.1239 4.932 36.2479 4.324 36.4959 3.804C36.7519 3.284 37.0999 2.884 37.5399 2.604C37.9799 2.324 38.4679 2.184 39.0039 2.184C39.4359 2.184 39.8199 2.276 40.1559 2.46C40.4999 2.636 40.7679 2.88 40.9599 3.192V0.12H43.3239V9H40.9599V8.064C40.7759 8.376 40.5159 8.624 40.1799 8.808C39.8439 8.992 39.4479 9.084 38.9919 9.084C38.4559 9.084 37.9679 8.944 37.5279 8.664C37.0959 8.384 36.7519 7.984 36.4959 7.464C36.2479 6.936 36.1239 6.324 36.1239 5.628ZM40.9719 5.628C40.9719 5.196 40.8519 4.856 40.6119 4.608C40.3799 4.36 40.0919 4.236 39.7479 4.236C39.3959 4.236 39.1039 4.36 38.8719 4.608C38.6399 4.848 38.5239 5.188 38.5239 5.628C38.5239 6.06 38.6399 6.404 38.8719 6.66C39.1039 6.908 39.3959 7.032 39.7479 7.032C40.0919 7.032 40.3799 6.908 40.6119 6.66C40.8519 6.412 40.9719 6.068 40.9719 5.628ZM51.0962 5.556C51.0962 5.74 51.0842 5.924 51.0602 6.108H46.6082C46.6322 6.476 46.7322 6.752 46.9082 6.936C47.0922 7.112 47.3242 7.2 47.6042 7.2C47.9962 7.2 48.2762 7.024 48.4442 6.672H50.9522C50.8482 7.136 50.6442 7.552 50.3402 7.92C50.0442 8.28 49.6682 8.564 49.2122 8.772C48.7562 8.98 48.2522 9.084 47.7002 9.084C47.0362 9.084 46.4442 8.944 45.9242 8.664C45.4122 8.384 45.0082 7.984 44.7122 7.464C44.4242 6.944 44.2802 6.332 44.2802 5.628C44.2802 4.924 44.4242 4.316 44.7122 3.804C45.0002 3.284 45.4002 2.884 45.9122 2.604C46.4322 2.324 47.0282 2.184 47.7002 2.184C48.3642 2.184 48.9522 2.32 49.4642 2.592C49.9762 2.864 50.3762 3.256 50.6642 3.768C50.9522 4.272 51.0962 4.868 51.0962 5.556ZM48.6962 4.968C48.6962 4.68 48.6002 4.456 48.4082 4.296C48.2162 4.128 47.9762 4.044 47.6882 4.044C47.4002 4.044 47.1642 4.124 46.9802 4.284C46.7962 4.436 46.6762 4.664 46.6202 4.968H48.6962ZM55.2867 6.78L56.5467 2.268H59.0547L56.7387 9H53.8107L51.4947 2.268H54.0027L55.2867 6.78ZM59.6837 2.232H62.6237L64.9277 4.86L62.6237 7.476H59.6837L61.9877 4.86L59.6837 2.232ZM67.2143 9.096C66.7983 9.096 66.4623 8.984 66.2063 8.76C65.9583 8.528 65.8343 8.236 65.8343 7.884C65.8343 7.532 65.9583 7.24 66.2063 7.008C66.4623 6.776 66.7983 6.66 67.2143 6.66C67.6223 6.66 67.9503 6.776 68.1983 7.008C68.4543 7.24 68.5823 7.532 68.5823 7.884C68.5823 8.228 68.4543 8.516 68.1983 8.748C67.9503 8.98 67.6223 9.096 67.2143 9.096Z" fill="url(#paint0_linear)"/>
<path d="M10.109 0.107999L9.83297 5.832H7.82897L7.55297 0.107999H10.109ZM8.83697 9.096C8.42097 9.096 8.08497 8.984 7.82897 8.76C7.58097 8.528 7.45697 8.236 7.45697 7.884C7.45697 7.532 7.58097 7.24 7.82897 7.008C8.08497 6.776 8.42097 6.66 8.83697 6.66C9.24497 6.66 9.57297 6.776 9.82097 7.008C10.077 7.24 10.205 7.532 10.205 7.884C10.205 8.228 10.077 8.516 9.82097 8.748C9.57297 8.98 9.24497 9.096 8.83697 9.096Z" fill="url(#paint1_linear)"/>
<defs>
<linearGradient id="paint0_linear" x1="1.27273" y1="5.64286" x2="66.8182" y2="5.64286" gradientUnits="userSpaceOnUse">
<stop stop-color="#F85032"/>
<stop offset="1" stop-color="#E73827"/>
</linearGradient>
<linearGradient id="paint1_linear" x1="1.27273" y1="5.64286" x2="66.8182" y2="5.64286" gradientUnits="userSpaceOnUse">
<stop stop-color="#332D2D"/>
<stop offset="1" stop-color="#E73827"/>
</linearGradient>
</defs>
</svg>
