<svg width="57" height="10" viewBox="0 0 57 10" fill="none" xmlns="http://www.w3.org/2000/svg">
<path d="M4.22461 8.39062L0.345703 6.07031L0.263672 3.91406L4.21289 1.41797L5.04492 3.41016L2.17383 4.91016L5.18555 6.375L4.22461 8.39062ZM15.9316 6.91406C15.9316 7.23828 15.8711 7.51758 15.75 7.75195C15.6328 7.98633 15.4746 8.18555 15.2754 8.34961C15.0762 8.51367 14.8457 8.64844 14.584 8.75391C14.3262 8.85547 14.0566 8.93555 13.7754 8.99414C13.4941 9.05273 13.2109 9.0918 12.9258 9.11133C12.6445 9.13086 12.3809 9.14062 12.1348 9.14062C11.8926 9.14062 11.6406 9.13086 11.3789 9.11133C11.1211 9.0957 10.8633 9.06641 10.6055 9.02344C10.3477 8.98047 10.0938 8.92383 9.84375 8.85352C9.59375 8.7793 9.35742 8.6875 9.13477 8.57812L9.12305 1.03125C9.3418 0.941406 9.57422 0.861328 9.82031 0.791016C10.0664 0.716797 10.3164 0.65625 10.5703 0.609375C10.8281 0.558594 11.084 0.521484 11.3379 0.498047C11.5918 0.470703 11.8379 0.457031 12.0762 0.457031C12.3535 0.457031 12.6328 0.474609 12.9141 0.509766C13.1992 0.544922 13.4727 0.603516 13.7344 0.685547C13.9961 0.767578 14.2402 0.875 14.4668 1.00781C14.6934 1.13672 14.8906 1.29687 15.0586 1.48828C15.2305 1.67969 15.3633 1.90234 15.457 2.15625C15.5547 2.41016 15.6035 2.70312 15.6035 3.03516C15.6035 3.25391 15.5723 3.45898 15.5098 3.65039C15.4473 3.8418 15.3574 4.01367 15.2402 4.16602C15.123 4.31836 14.9805 4.44922 14.8125 4.55859C14.6445 4.66406 14.4551 4.74219 14.2441 4.79297C14.498 4.85938 14.7285 4.95703 14.9355 5.08594C15.1465 5.21484 15.3242 5.37109 15.4688 5.55469C15.6172 5.73828 15.7305 5.94531 15.8086 6.17578C15.8906 6.40625 15.9316 6.65234 15.9316 6.91406ZM12.9551 3.57422C12.9551 3.46094 12.9316 3.36523 12.8848 3.28711C12.8379 3.20508 12.7793 3.13867 12.709 3.08789C12.6426 3.03711 12.5684 3 12.4863 2.97656C12.4082 2.95312 12.3379 2.94141 12.2754 2.94141C12.1973 2.94141 12.1211 2.95312 12.0469 2.97656C11.9727 3 11.9004 3.02734 11.8301 3.05859L11.7949 4.35938C11.8848 4.35938 11.9961 4.35156 12.1289 4.33594C12.2617 4.32031 12.3887 4.28711 12.5098 4.23633C12.6348 4.18164 12.7402 4.10352 12.8262 4.00195C12.9121 3.89648 12.9551 3.75391 12.9551 3.57422ZM12.123 5.48438C12.0098 5.48438 11.9004 5.49609 11.7949 5.51953L11.7715 6.85547C11.8301 6.86719 11.8867 6.87891 11.9414 6.89062C12 6.89844 12.0566 6.90234 12.1113 6.90234C12.1934 6.90234 12.2832 6.89453 12.3809 6.87891C12.4785 6.85938 12.5703 6.82422 12.6562 6.77344C12.7422 6.71875 12.8125 6.64648 12.8672 6.55664C12.9258 6.4668 12.9551 6.34766 12.9551 6.19922C12.9551 6.05078 12.9258 5.92969 12.8672 5.83594C12.8125 5.74219 12.7441 5.66992 12.6621 5.61914C12.5801 5.56445 12.4902 5.5293 12.3926 5.51367C12.2949 5.49414 12.2051 5.48438 12.123 5.48438ZM23.6367 8.49609L20.7305 8.87109L20.3789 7.54688H19.043L18.75 8.87109L15.7617 8.57812L18.0938 0.773438L21.3516 0.609375L23.6367 8.49609ZM20.168 5.75391L19.7227 3.71484L19.2891 5.75391H20.168ZM30.3984 4.34766C30.3984 4.89453 30.3281 5.38477 30.1875 5.81836C30.0469 6.25195 29.8496 6.63672 29.5957 6.97266C29.3457 7.30469 29.0469 7.58789 28.6992 7.82227C28.3516 8.05664 27.9707 8.25 27.5566 8.40234C27.1426 8.55078 26.7012 8.66016 26.2324 8.73047C25.7676 8.80078 25.2891 8.83594 24.7969 8.83594C24.6133 8.83594 24.4336 8.83203 24.2578 8.82422C24.082 8.8125 23.9023 8.79688 23.7188 8.77734L23.8828 1.14844C24.3125 1.01172 24.7539 0.916016 25.207 0.861328C25.6641 0.802734 26.1172 0.773438 26.5664 0.773438C27.125 0.773438 27.6387 0.851562 28.1074 1.00781C28.5762 1.16406 28.9805 1.39453 29.3203 1.69922C29.6602 2 29.9238 2.37305 30.1113 2.81836C30.3027 3.25977 30.3984 3.76953 30.3984 4.34766ZM26.4141 6.59766C26.6484 6.5625 26.8613 6.49219 27.0527 6.38672C27.248 6.27734 27.416 6.14453 27.5566 5.98828C27.6973 5.82812 27.8047 5.64844 27.8789 5.44922C27.957 5.24609 27.9961 5.03125 27.9961 4.80469C27.9961 4.58203 27.9727 4.375 27.9258 4.18359C27.8789 3.98828 27.8027 3.82031 27.6973 3.67969C27.5918 3.53516 27.4531 3.42188 27.2812 3.33984C27.1094 3.25391 26.8984 3.20703 26.6484 3.19922L26.4141 6.59766ZM37.4062 4.34766C37.4062 4.89453 37.3359 5.38477 37.1953 5.81836C37.0547 6.25195 36.8574 6.63672 36.6035 6.97266C36.3535 7.30469 36.0547 7.58789 35.707 7.82227C35.3594 8.05664 34.9785 8.25 34.5645 8.40234C34.1504 8.55078 33.709 8.66016 33.2402 8.73047C32.7754 8.80078 32.2969 8.83594 31.8047 8.83594C31.6211 8.83594 31.4414 8.83203 31.2656 8.82422C31.0898 8.8125 30.9102 8.79688 30.7266 8.77734L30.8906 1.14844C31.3203 1.01172 31.7617 0.916016 32.2148 0.861328C32.6719 0.802734 33.125 0.773438 33.5742 0.773438C34.1328 0.773438 34.6465 0.851562 35.1152 1.00781C35.584 1.16406 35.9883 1.39453 36.3281 1.69922C36.668 2 36.9316 2.37305 37.1191 2.81836C37.3105 3.25977 37.4062 3.76953 37.4062 4.34766ZM33.4219 6.59766C33.6562 6.5625 33.8691 6.49219 34.0605 6.38672C34.2559 6.27734 34.4238 6.14453 34.5645 5.98828C34.7051 5.82812 34.8125 5.64844 34.8867 5.44922C34.9648 5.24609 35.0039 5.03125 35.0039 4.80469C35.0039 4.58203 34.9805 4.375 34.9336 4.18359C34.8867 3.98828 34.8105 3.82031 34.7051 3.67969C34.5996 3.53516 34.4609 3.42188 34.2891 3.33984C34.1172 3.25391 33.9062 3.20703 33.6562 3.19922L33.4219 6.59766ZM44.3145 4.26562C44.3145 4.60547 44.291 4.94531 44.2441 5.28516C43.5762 5.32812 42.9121 5.39844 42.252 5.49609C41.5918 5.58984 40.9316 5.68359 40.2715 5.77734C40.373 6.05859 40.5312 6.2832 40.7461 6.45117C40.9648 6.61914 41.2246 6.70312 41.5254 6.70312C41.6816 6.70312 41.8516 6.67383 42.0352 6.61523C42.2227 6.55664 42.4082 6.48438 42.5918 6.39844C42.7754 6.30859 42.9512 6.21289 43.1191 6.11133C43.2871 6.00977 43.4316 5.91797 43.5527 5.83594L43.2715 8.49609C43.1191 8.61328 42.9531 8.71289 42.7734 8.79492C42.5977 8.87695 42.4141 8.94336 42.2227 8.99414C42.0312 9.04492 41.8379 9.08203 41.6426 9.10547C41.4473 9.12891 41.2559 9.14062 41.0684 9.14062C40.6816 9.14062 40.3281 9.08789 40.0078 8.98242C39.6875 8.87695 39.3965 8.73047 39.1348 8.54297C38.877 8.35156 38.6504 8.12695 38.4551 7.86914C38.2598 7.61133 38.0977 7.33008 37.9688 7.02539C37.8398 6.7207 37.7422 6.39844 37.6758 6.05859C37.6094 5.71875 37.5762 5.375 37.5762 5.02734C37.5762 4.66406 37.6094 4.30078 37.6758 3.9375C37.7422 3.57422 37.8418 3.22461 37.9746 2.88867C38.1113 2.55273 38.2812 2.24219 38.4844 1.95703C38.6914 1.66797 38.9316 1.41602 39.2051 1.20117C39.4785 0.986328 39.7871 0.818359 40.1309 0.697266C40.4785 0.576172 40.8613 0.515625 41.2793 0.515625C41.627 0.515625 41.9434 0.564453 42.2285 0.662109C42.5176 0.755859 42.7734 0.888672 42.9961 1.06055C43.2227 1.22852 43.418 1.42969 43.582 1.66406C43.75 1.89844 43.8867 2.15625 43.9922 2.4375C44.1016 2.71484 44.1816 3.00977 44.2324 3.32227C44.2871 3.63086 44.3145 3.94531 44.3145 4.26562ZM41.9707 3.96094C41.9707 3.85156 41.959 3.74023 41.9355 3.62695C41.9121 3.50977 41.873 3.4043 41.8184 3.31055C41.7676 3.2168 41.6992 3.14062 41.6133 3.08203C41.5273 3.01953 41.4199 2.98828 41.291 2.98828C41.1348 2.98828 40.9961 3.03125 40.875 3.11719C40.7578 3.19922 40.6562 3.30469 40.5703 3.43359C40.4844 3.55859 40.4141 3.69531 40.3594 3.84375C40.3047 3.99219 40.2637 4.12891 40.2363 4.25391L41.9707 4.08984V3.96094ZM51.7617 0.785156L49.6172 8.70703L46.7109 8.87109L44.0742 1.21875L46.8516 0.960938L47.9766 5.41406L49.0664 0.609375L51.7617 0.785156ZM52.8867 8.39062L52.043 6.375L54.9258 4.875L51.9258 3.41016L52.875 1.41797L56.7539 3.71484L56.8477 5.88281L52.8867 8.39062Z" fill="url(#paint0_linear)"/>
<path d="M8.63086 0.292969L8.15039 6.45703H5.98242L5.75977 0.292969H8.63086ZM8.24414 8.26172C8.24414 8.43359 8.21094 8.59375 8.14453 8.74219C8.07812 8.89062 7.98828 9.01953 7.875 9.12891C7.76562 9.24219 7.63672 9.33008 7.48828 9.39258C7.33984 9.45898 7.18164 9.49219 7.01367 9.49219C6.8418 9.49219 6.68164 9.45898 6.5332 9.39258C6.38477 9.33008 6.25391 9.24219 6.14062 9.12891C6.03125 9.01953 5.94336 8.89062 5.87695 8.74219C5.81445 8.59375 5.7832 8.43359 5.7832 8.26172C5.7832 8.09375 5.81445 7.93359 5.87695 7.78125C5.94336 7.62891 6.03125 7.49805 6.14062 7.38867C6.25391 7.27539 6.38477 7.18555 6.5332 7.11914C6.68164 7.05273 6.8418 7.01953 7.01367 7.01953C7.18164 7.01953 7.33984 7.05273 7.48828 7.11914C7.63672 7.18555 7.76562 7.27539 7.875 7.38867C7.98828 7.49805 8.07812 7.62891 8.14453 7.78125C8.21094 7.93359 8.24414 8.09375 8.24414 8.26172Z" fill="url(#paint1_linear)"/>
<defs>
<linearGradient id="paint0_linear" x1="1.05455" y1="7.42857" x2="55.3636" y2="7.42857" gradientUnits="userSpaceOnUse">
<stop stop-color="#F85032"/>
<stop offset="1" stop-color="#E73827"/>
</linearGradient>
<linearGradient id="paint1_linear" x1="1.05455" y1="7.42857" x2="55.3636" y2="7.42857" gradientUnits="userSpaceOnUse">
<stop stop-color="#332D2D"/>
<stop offset="1" stop-color="#E73827"/>
</linearGradient>
</defs>
</svg>
