<?xml version="1.0" encoding="iso-8859-1"?>
<!-- Generator: Adobe Illustrator 19.0.0, SVG Export Plug-In . SVG Version: 6.00 Build 0)  -->
<svg version="1.1" id="Capa_1" xmlns="http://www.w3.org/2000/svg" xmlns:xlink="http://www.w3.org/1999/xlink" x="0px" y="0px"
	 viewBox="0 0 512 512" style="enable-background:new 0 0 512 512;" xml:space="preserve">
<g>
	<path style="fill:#DCDDDD;" d="M218.132,156.289h-17.628c-41.867,0-75.929-34.062-75.929-75.929V36.028
		c0-4.204,3.408-7.611,7.611-7.611c4.204,0,7.611,3.408,7.611,7.611V80.36c0,33.473,27.233,60.706,60.706,60.706h17.628
		c4.204,0,7.611,3.408,7.611,7.611S222.336,156.289,218.132,156.289z"/>
	<path style="fill:#DCDDDD;" d="M208.999,156.289H75.354c-4.204,0-7.611-3.408-7.611-7.611s3.408-7.611,7.611-7.611h133.645
		c4.204,0,7.611,3.408,7.611,7.611S213.202,156.289,208.999,156.289z"/>
	<path style="fill:#DCDDDD;" d="M309.466,156.289h-16.613c-4.205,0-7.612-3.408-7.612-7.611s3.407-7.611,7.612-7.611h16.613
		c33.473,0,60.706-27.233,60.706-60.706V36.028c0-4.204,3.407-7.611,7.612-7.611c4.205,0,7.611,3.408,7.611,7.611V80.36
		C385.395,122.227,351.335,156.289,309.466,156.289z"/>
	<path style="fill:#DCDDDD;" d="M437.154,156.289H292.853c-4.205,0-7.612-3.408-7.612-7.611s3.407-7.611,7.612-7.611h144.301
		c4.205,0,7.612,3.408,7.612,7.611S441.358,156.289,437.154,156.289z"/>
</g>
<path style="fill:#474755;" d="M454.762,202.466H57.238c-10.169,0-18.42,8.251-18.42,18.42v184.401
	c0,10.169,8.251,18.42,18.42,18.42h397.523c10.169,0,18.42-8.251,18.42-18.42V220.886
	C473.181,210.717,464.931,202.466,454.762,202.466z"/>
<path style="fill:#404251;" d="M244.075,405.287V220.886c0-10.169,8.251-18.42,18.42-18.42H57.238
	c-10.169,0-18.42,8.251-18.42,18.42v184.401c0,10.169,8.251,18.42,18.42,18.42h205.257
	C252.326,423.707,244.075,415.456,244.075,405.287z"/>
<path style="fill:#FF395E;" d="M454.762,202.466H57.238c-10.169,0-18.42,8.251-18.42,18.42v25.727h434.363v-25.727
	C473.181,210.717,464.931,202.466,454.762,202.466z"/>
<path style="fill:#B12E65;" d="M244.075,220.886c0-10.169,8.251-18.42,18.42-18.42H57.238c-10.169,0-18.42,8.251-18.42,18.42v25.727
	h205.257V220.886z"/>
<path style="fill:#F3D064;" d="M256,77.13l66.664,101.475c1.782,2.714,2.086,6.14,0.808,9.124l-25.862,60.406v63.937H214.39v-63.937
	l-25.863-60.406c-1.278-2.985-0.974-6.411,0.808-9.124L256,77.13z"/>
<path style="fill:#EDBD41;" d="M256.348,248.135c-17.428-40.706-13.289-87.44,11.024-124.448l9.606-14.622L256,77.13
	l-66.664,101.475c-1.782,2.714-2.086,6.14-0.808,9.124l25.862,60.406v63.937h41.959L256.348,248.135L256.348,248.135z"/>
<path style="fill:#FFFFFF;" d="M256,167.96c10.646,0,19.282,8.637,19.282,19.282c0,10.646-8.637,19.282-19.282,19.282
	c-10.646,0-19.282-8.637-19.282-19.282C236.718,176.597,245.354,167.96,256,167.96z"/>
<g>
	<path style="fill:#CED6E0;" d="M139.781,43.639h-15.188c-7.844,0-14.225-6.381-14.225-14.225V14.225
		C110.367,6.381,116.748,0,124.592,0h15.188c7.844,0,14.225,6.381,14.225,14.225v15.188
		C154.006,37.258,147.624,43.639,139.781,43.639z M125.59,28.416h13.193V15.223H125.59V28.416z"/>
	<path style="fill:#CED6E0;" d="M385.378,43.639h-15.19c-7.844,0-14.225-6.381-14.225-14.225V14.225
		C355.964,6.381,362.346,0,370.19,0h15.19c7.844,0,14.225,6.381,14.225,14.225v15.188C399.604,37.258,393.222,43.639,385.378,43.639
		z M371.187,28.416h13.193V15.223h-13.193V28.416z"/>
	<path style="fill:#CED6E0;" d="M63.175,168.468c-10.912,0-19.79-8.878-19.79-19.79s8.878-19.79,19.79-19.79
		s19.79,8.878,19.79,19.79S74.087,168.468,63.175,168.468z M63.175,144.111c-2.518,0-4.567,2.049-4.567,4.567
		s2.049,4.567,4.567,4.567s4.567-2.049,4.567-4.567S65.693,144.111,63.175,144.111z"/>
	<path style="fill:#CED6E0;" d="M449.839,168.468c-10.912,0-19.79-8.878-19.79-19.79s8.878-19.79,19.79-19.79
		c10.912,0,19.79,8.878,19.79,19.79S460.751,168.468,449.839,168.468z M449.839,144.111c-2.518,0-4.567,2.049-4.567,4.567
		s2.049,4.567,4.567,4.567c2.518,0,4.567-2.049,4.567-4.567S452.357,144.111,449.839,144.111z"/>
</g>
<circle style="fill:#842D65;" cx="67.235" cy="224.793" r="6.597"/>
<circle style="fill:#EAB430;" cx="91.592" cy="224.793" r="6.597"/>
<circle style="fill:#C5D65C;" cx="115.948" cy="224.793" r="6.597"/>
<path style="fill:#8ACAEB;" d="M303.699,305.282v199.472c0,3.999-3.248,7.246-7.246,7.246h-80.905c-3.999,0-7.246-3.248-7.246-7.246
	V305.282c0-5.785,4.679-10.463,10.463-10.463h74.471C299.02,294.819,303.699,299.497,303.699,305.282z"/>
<path style="fill:#8BB1EA;" d="M256,504.754V305.282c0-5.785,4.679-10.463,10.463-10.463h-47.699
	c-5.785,0-10.463,4.679-10.463,10.463v199.472c0,3.999,3.248,7.246,7.246,7.246h47.699C259.248,512,256,508.752,256,504.754z"/>
<path style="fill:#7CA1D8;" d="M87.532,292.281H69.265c-4.204,0-7.611-3.408-7.611-7.611s3.408-7.612,7.611-7.612h18.268
	c4.204,0,7.611,3.408,7.611,7.612S91.736,292.281,87.532,292.281z"/>
<g>
	<path style="fill:#EAB430;" d="M183.945,292.281h-70.026c-4.204,0-7.611-3.408-7.611-7.611s3.408-7.612,7.611-7.612h70.026
		c4.204,0,7.611,3.408,7.611,7.612S188.148,292.281,183.945,292.281z"/>
	<path style="fill:#EAB430;" d="M115.948,324.757H81.443c-4.204,0-7.611-3.408-7.611-7.612c0-4.204,3.408-7.611,7.611-7.611h34.505
		c4.204,0,7.612,3.408,7.612,7.611C123.56,321.349,120.152,324.757,115.948,324.757z"/>
</g>
<path style="fill:#FF395E;" d="M115.948,361.292H101.74c-4.204,0-7.611-3.408-7.611-7.612s3.408-7.611,7.611-7.611h14.208
	c4.204,0,7.612,3.408,7.612,7.611S120.152,361.292,115.948,361.292z"/>
<path style="fill:#C5D65C;" d="M167.707,324.757h-29.431c-4.204,0-7.611-3.408-7.611-7.612c0-4.204,3.408-7.611,7.611-7.611h29.431
	c4.204,0,7.611,3.408,7.611,7.611C175.318,321.349,171.91,324.757,167.707,324.757z"/>
<path style="fill:#EAB430;" d="M160.603,361.292h-22.327c-4.204,0-7.611-3.408-7.611-7.612s3.408-7.611,7.611-7.611h22.327
	c4.204,0,7.611,3.408,7.611,7.611S164.806,361.292,160.603,361.292z"/>
<path style="fill:#C5D65C;" d="M140.305,396.813H69.265c-4.204,0-7.611-3.408-7.611-7.611s3.408-7.612,7.611-7.612h71.041
	c4.204,0,7.611,3.408,7.611,7.612S144.509,396.813,140.305,396.813z"/>
<g>
	<path style="fill:#FF395E;" d="M183.945,394.783h-23.342c-4.204,0-7.611-3.408-7.611-7.611c0-4.204,3.408-7.612,7.611-7.612h23.342
		c4.204,0,7.611,3.408,7.611,7.612C191.556,391.375,188.148,394.783,183.945,394.783z"/>
	<path style="fill:#FF395E;" d="M398.081,292.281h-70.026c-4.205,0-7.612-3.408-7.612-7.611s3.407-7.612,7.612-7.612h70.026
		c4.205,0,7.612,3.408,7.612,7.612S402.286,292.281,398.081,292.281z"/>
</g>
<path style="fill:#C5D65C;" d="M430.557,324.757h-52.773c-4.205,0-7.612-3.408-7.612-7.612c0-4.204,3.407-7.611,7.612-7.611h52.773
	c4.205,0,7.611,3.408,7.611,7.611C438.168,321.349,434.762,324.757,430.557,324.757z"/>
<g>
	<path style="fill:#EAB430;" d="M430.557,361.292h-34.505c-4.205,0-7.611-3.408-7.611-7.612s3.407-7.611,7.611-7.611h34.505
		c4.205,0,7.611,3.408,7.611,7.611S434.762,361.292,430.557,361.292z"/>
	<path style="fill:#EAB430;" d="M359.516,324.757h-15.223c-4.205,0-7.611-3.408-7.611-7.612c0-4.204,3.407-7.611,7.611-7.611h15.223
		c4.205,0,7.612,3.408,7.612,7.611C367.128,321.349,363.721,324.757,359.516,324.757z"/>
</g>
<path style="fill:#7CA1D8;" d="M373.724,361.292h-22.327c-4.205,0-7.611-3.408-7.611-7.612s3.407-7.611,7.611-7.611h22.327
	c4.205,0,7.612,3.408,7.612,7.611S377.929,361.292,373.724,361.292z"/>
<path style="fill:#FF395E;" d="M442.735,396.813h-71.041c-4.205,0-7.612-3.408-7.612-7.611s3.407-7.612,7.612-7.612h71.041
	c4.205,0,7.612,3.408,7.612,7.612S446.94,396.813,442.735,396.813z"/>
<path style="fill:#EAB430;" d="M351.397,394.783h-23.342c-4.205,0-7.612-3.408-7.612-7.611c0-4.204,3.407-7.612,7.612-7.612h23.342
	c4.205,0,7.612,3.408,7.612,7.612C359.009,391.375,355.602,394.783,351.397,394.783z"/>
<g>
</g>
<g>
</g>
<g>
</g>
<g>
</g>
<g>
</g>
<g>
</g>
<g>
</g>
<g>
</g>
<g>
</g>
<g>
</g>
<g>
</g>
<g>
</g>
<g>
</g>
<g>
</g>
<g>
</g>
</svg>
