<?xml version="1.0" encoding="iso-8859-1"?>
<!-- Generator: Adobe Illustrator 19.0.0, SVG Export Plug-In . SVG Version: 6.00 Build 0)  -->
<svg version="1.1" id="Capa_1" xmlns="http://www.w3.org/2000/svg" xmlns:xlink="http://www.w3.org/1999/xlink" x="0px" y="0px"
	 viewBox="0 0 513.067 513.067" style="enable-background:new 0 0 513.067 513.067;" xml:space="preserve">
<path style="fill:#CDD6E0;" d="M74.667,60.267H0V38.933c0-21.333,17.067-38.4,37.333-38.4l0,0c21.333,0,37.333,17.067,37.333,37.333
	L74.667,60.267L74.667,60.267z"/>
<path style="fill:#F2F2F2;" d="M450.133,0.533H74.667H37.333c21.333,0,37.333,17.067,37.333,37.333v22.4v393.6v21.334
	c0,20.267,17.067,37.333,37.333,37.333l0,0h359.467V452.8V60.267v-38.4C471.467,10.134,461.867,0.533,450.133,0.533z"/>
<path style="fill:#CDD6E0;" d="M148.267,452.8L148.267,452.8v22.4c0,20.267-17.067,37.333-37.333,37.333l0,0h363.733h-2.133
	c20.267,0,40.533-17.067,40.533-37.333v-22.4L148.267,452.8L148.267,452.8z"/>
<path style="fill:#FF7058;" d="M375.467,157.333c0-3.2,0-6.4,0-9.6c7.467-4.267,13.867-9.6,21.333-13.867
	c-2.133-9.6-5.333-20.267-9.6-28.8c-8.533,0-17.067,1.067-25.6,1.067c-3.2-5.333-7.467-10.667-11.733-16
	c3.2-7.467,5.333-16,8.533-23.467c-7.467-6.4-16-12.8-24.533-18.133c-6.4,5.333-13.867,10.667-20.267,16
	c-5.333-2.133-11.733-4.267-18.133-6.4c-2.133-8.533-4.267-16-6.4-24.533c-10.667-1.067-20.267-1.067-30.933,0
	c-2.133,8.533-4.267,16-6.4,24.533c-6.4,1.067-12.8,3.2-18.133,6.4c-6.4-5.333-12.8-10.667-20.267-16
	c-8.533,5.333-17.067,11.733-24.533,18.133c3.2,8.533,6.4,16,8.533,23.467c-4.267,5.333-8.533,9.6-11.733,16
	c-8.533,0-17.067-1.067-25.6-1.067c-4.267,9.6-7.467,19.2-9.6,28.8c7.467,4.267,13.867,9.6,21.333,13.867c0,3.2,0,6.4,0,9.6
	s0,6.4,0,9.6c-7.467,4.267-13.867,9.6-21.333,13.867c2.133,9.6,5.333,20.267,9.6,28.8c8.533,0,17.067-1.067,25.6-1.067
	c3.2,5.333,7.467,10.667,11.733,16c-3.2,7.467-5.333,16-8.533,23.467c7.467,6.4,16,12.8,24.533,18.133
	c6.4-5.333,13.867-10.667,20.267-16c5.333,2.133,11.733,4.267,18.133,6.4c2.133,8.533,4.267,16,6.4,24.533
	c10.667,1.067,20.267,1.067,30.933,0c2.133-8.533,4.267-16,6.4-24.533c6.4-1.067,12.8-3.2,18.133-6.4
	c6.4,5.333,12.8,10.667,20.267,16c8.533-5.333,17.066-11.733,24.533-18.133c-3.2-8.533-6.4-16-8.533-23.467
	c4.267-5.333,8.533-9.6,11.733-16c8.533,0,17.067,1.067,25.6,1.067c4.267-9.6,7.467-19.2,9.6-28.8
	c-7.467-4.267-13.867-9.6-21.333-13.867C375.467,163.734,375.467,160.534,375.467,157.333z M273.067,209.601
	c-29.867,0-53.333-23.467-53.333-53.333s23.467-53.333,53.333-53.333S326.4,126.4,326.4,156.268S302.933,209.601,273.067,209.601z"
	/>
<path style="fill:#F8B64C;" d="M326.4,104.001L326.4,104.001l-19.2,19.2l0,0c18.133,18.133,18.133,49.067,0,67.2s-48,18.133-67.2,0
	l0,0l-19.2,19.2l0,0c28.8,28.8,76.8,28.8,105.6,0S355.2,132.801,326.4,104.001z"/>
<path style="fill:#FFD15C;" d="M240,123.201c18.133-18.133,49.067-18.133,67.2,0l19.2-19.2c-28.8-28.8-76.8-28.8-105.6,0
	s-28.8,76.8,0,105.6l19.2-19.2C221.867,172.268,221.867,141.333,240,123.201z"/>
<rect x="131.2" y="316.27" style="fill:#4CB5D6;" width="280.53" height="10.667"/>
<rect x="131.2" y="325.87" style="fill:#54C0EB;" width="280.53" height="10.667"/>
<rect x="131.2" y="336.53" style="fill:#84DBFF;" width="280.53" height="10.667"/>
<polygon style="fill:#FFD15C;" points="131.2,347.201 118.4,340.8 112,337.6 98.133,331.201 112,324.8 118.4,321.6 131.2,316.267 
	"/>
<rect x="411.73" y="316.27" style="fill:#FF7058;" width="9.6" height="30.933"/>
<path style="fill:#40596B;" d="M449.067,331.201L449.067,331.201c0-8.533-7.467-16-16-16h-12.8v30.933h12.8
	C441.6,347.201,449.067,339.733,449.067,331.201z"/>
<polygon style="fill:#334A5E;" points="112,337.6 98.133,331.201 112,324.8 "/>
<rect x="100.27" y="370.671" style="fill:#FFD15C;" width="346.67" height="57.6"/>
<g>
	<rect x="425.6" y="370.671" style="fill:#F2F2F2;" width="4.267" height="16"/>
	<rect x="391.47" y="370.671" style="fill:#F2F2F2;" width="4.267" height="16"/>
	<rect x="357.33" y="370.671" style="fill:#F2F2F2;" width="4.267" height="16"/>
	<rect x="323.2" y="370.671" style="fill:#F2F2F2;" width="4.267" height="16"/>
	<rect x="289.07" y="370.671" style="fill:#F2F2F2;" width="4.267" height="16"/>
	<rect x="254.93" y="370.671" style="fill:#F2F2F2;" width="4.267" height="16"/>
	<rect x="219.73" y="370.671" style="fill:#F2F2F2;" width="4.267" height="16"/>
	<rect x="185.6" y="370.671" style="fill:#F2F2F2;" width="4.267" height="16"/>
	<rect x="151.47" y="370.671" style="fill:#F2F2F2;" width="4.267" height="16"/>
	<rect x="117.33" y="370.671" style="fill:#F2F2F2;" width="4.267" height="16"/>
</g>
<g>
</g>
<g>
</g>
<g>
</g>
<g>
</g>
<g>
</g>
<g>
</g>
<g>
</g>
<g>
</g>
<g>
</g>
<g>
</g>
<g>
</g>
<g>
</g>
<g>
</g>
<g>
</g>
<g>
</g>
</svg>
