<svg width="126" height="50" viewBox="0 0 126 50" fill="none" xmlns="http://www.w3.org/2000/svg">
<g filter="url(#filter0_i)">
<path d="M13.6324 15.544C10.5236 13.9896 4.02536 16.8394 1.32674 18.4586C15.5755 15.544 11.6894 22.6684 5.53659 30.1166C0.614306 36.0751 -0.184485 41.2349 0.0314047 43.0699C0.355239 53.4326 10.8583 48.4405 12.6609 46.956C23.6713 37.8886 27.8811 26.8782 30.148 37.5648C32.7386 45.6606 40.5107 43.7176 46.0158 38.2124L80.99 0C68.1445 10.5786 42.1889 32.9035 38.8915 34.0026C31.1195 36.5933 33.7101 25.7336 33.7101 22.9922C33.7101 17.1632 28.5288 21.3731 26.5858 23.9637C23.6713 27.2021 16.1583 34.1321 14.6039 35.9456C10.8057 40.3769 6.47668 40.4793 9.71503 34.3264L14.6039 24.2876C15.8993 21.3731 16.7412 17.0984 13.6324 15.544Z" fill="url(#paint0_linear)"/>
</g>
<circle cx="54.5829" cy="38.4171" r="3.41711" fill="url(#paint1_radial)"/>
<path d="M76.9383 33.2588L74.222 41.9637H72.7288L70.632 35.0538L68.5352 41.9637H67.042L64.3098 33.2588H65.7871L67.7886 40.5659L69.9489 33.2588H71.4262L73.5389 40.5817L75.5087 33.2588H76.9383ZM77.8328 37.5795C77.8328 36.6899 78.0129 35.9116 78.3729 35.2444C78.733 34.5666 79.2254 34.0424 79.8502 33.6718C80.4856 33.3011 81.1898 33.1158 81.9629 33.1158C82.7254 33.1158 83.3873 33.28 83.9485 33.6082C84.5098 33.9365 84.9281 34.3495 85.2034 34.8473V33.2588H86.6649V41.9637H85.2034V40.3435C84.9175 40.8518 84.4886 41.2754 83.9168 41.6143C83.3555 41.9425 82.6989 42.1067 81.947 42.1067C81.174 42.1067 80.475 41.9161 79.8502 41.5348C79.2254 41.1536 78.733 40.6188 78.3729 39.9305C78.0129 39.2421 77.8328 38.4584 77.8328 37.5795ZM85.2034 37.5954C85.2034 36.9388 85.0711 36.3669 84.8063 35.8798C84.5416 35.3927 84.1815 35.022 83.7261 34.7678C83.2814 34.5031 82.7889 34.3707 82.2488 34.3707C81.7088 34.3707 81.2163 34.4978 80.7715 34.752C80.3268 35.0061 79.972 35.3768 79.7073 35.8639C79.4425 36.351 79.3101 36.9229 79.3101 37.5795C79.3101 38.2466 79.4425 38.8291 79.7073 39.3268C79.972 39.814 80.3268 40.1899 80.7715 40.4547C81.2163 40.7088 81.7088 40.8359 82.2488 40.8359C82.7889 40.8359 83.2814 40.7088 83.7261 40.4547C84.1815 40.1899 84.5416 39.814 84.8063 39.3268C85.0711 38.8291 85.2034 38.2519 85.2034 37.5954ZM92.3482 40.6294L95.0486 33.2588H96.5895L93.1742 41.9637H91.4904L88.0751 33.2588H89.6319L92.3482 40.6294ZM105.954 37.2777C105.954 37.553 105.939 37.8442 105.907 38.1513H98.9492C99.0021 39.0091 99.2933 39.6816 99.8228 40.1687C100.363 40.6453 101.014 40.8836 101.777 40.8836C102.401 40.8836 102.92 40.7406 103.333 40.4547C103.757 40.1581 104.054 39.7663 104.223 39.2792H105.78C105.547 40.1158 105.081 40.7988 104.382 41.3283C103.683 41.8472 102.814 42.1067 101.777 42.1067C100.951 42.1067 100.209 41.9214 99.5528 41.5507C98.9068 41.1801 98.3985 40.6559 98.0278 39.9781C97.6572 39.2898 97.4718 38.4955 97.4718 37.5954C97.4718 36.6952 97.6519 35.9063 98.0119 35.2285C98.372 34.5507 98.875 34.0318 99.521 33.6718C100.178 33.3011 100.929 33.1158 101.777 33.1158C102.603 33.1158 103.333 33.2958 103.969 33.6559C104.604 34.016 105.091 34.5137 105.43 35.1491C105.78 35.7739 105.954 36.4834 105.954 37.2777ZM104.461 36.9759C104.461 36.4252 104.339 35.9539 104.096 35.5621C103.852 35.1597 103.519 34.8579 103.095 34.6566C102.682 34.4448 102.221 34.3389 101.713 34.3389C100.982 34.3389 100.358 34.5719 99.8387 35.0379C99.3304 35.5038 99.0392 36.1498 98.965 36.9759H104.461ZM111.405 34.4501H109.578V41.9637H108.133V34.4501H107.005V33.2588H108.133V32.6393C108.133 31.665 108.381 30.9555 108.879 30.5107C109.387 30.0553 110.198 29.8276 111.31 29.8276V31.0349C110.674 31.0349 110.224 31.162 109.959 31.4161C109.705 31.6597 109.578 32.0674 109.578 32.6393V33.2588H111.405V34.4501ZM114.536 30.2089V41.9637H113.09V30.2089H114.536ZM124.497 33.2588L119.255 46.062H117.762L119.477 41.8684L115.967 33.2588H117.571L120.304 40.3117L123.004 33.2588H124.497Z" fill="#332D2D"/>
<defs>
<filter id="filter0_i" x="0" y="0" width="80.99" height="50.4651" filterUnits="userSpaceOnUse" color-interpolation-filters="sRGB">
<feFlood flood-opacity="0" result="BackgroundImageFix"/>
<feBlend mode="normal" in="SourceGraphic" in2="BackgroundImageFix" result="shape"/>
<feColorMatrix in="SourceAlpha" type="matrix" values="0 0 0 0 0 0 0 0 0 0 0 0 0 0 0 0 0 0 127 0" result="hardAlpha"/>
<feOffset dy="2"/>
<feGaussianBlur stdDeviation="0.5"/>
<feComposite in2="hardAlpha" operator="arithmetic" k2="-1" k3="1"/>
<feColorMatrix type="matrix" values="0 0 0 0 0 0 0 0 0 0 0 0 0 0 0 0 0 0 0.1 0"/>
<feBlend mode="normal" in2="shape" result="effect1_innerShadow"/>
</filter>
<linearGradient id="paint0_linear" x1="76.101" y1="8.09586" x2="4.35392e-06" y2="40.8031" gradientUnits="userSpaceOnUse">
<stop stop-color="#E73827"/>
<stop offset="1" stop-color="#F85032"/>
</linearGradient>
<radialGradient id="paint1_radial" cx="0" cy="0" r="1" gradientUnits="userSpaceOnUse" gradientTransform="translate(54.5829 38.4171) rotate(90) scale(3.41711)">
<stop stop-color="#F85032"/>
<stop offset="1" stop-color="#E73827"/>
</radialGradient>
</defs>
</svg>
